<svg xmlns="http://www.w3.org/2000/svg" width="800" height="800" viewBox="0 0 73 73"><g fill="none" fill-rule="nonzero"><rect width="71" height="71" x="-1" y="-1" fill="#FFF" stroke="#0C6D87" stroke-width="2" rx="14" transform="translate(2 2)"/><g fill="#61DAFB" transform="translate(12 15)"><path d="M48.93 21.761c0-3.237-4.053-6.304-10.268-8.206C40.096 7.22 39.46 2.18 36.65.568 36.003.189 35.246.01 34.42.01v2.22c.458 0 .826.09 1.135.26 1.354.777 1.942 3.735 1.484 7.54a30.66 30.66 0 0 1-.508 2.927 48.265 48.265 0 0 0-6.324-1.085 48.582 48.582 0 0 0-4.143-4.98c3.246-3.018 6.294-4.671 8.365-4.671V0c-2.738 0-6.324 1.952-9.949 5.338C20.855 1.972 17.27.04 14.53.04v2.22c2.062 0 5.12 1.644 8.367 4.642a47.04 47.04 0 0 0-4.114 4.97c-2.25.239-4.382.607-6.334 1.095a30.046 30.046 0 0 1-.518-2.888c-.468-3.805.11-6.763 1.454-7.55.3-.179.688-.258 1.146-.258V.05c-.837 0-1.594.18-2.251.558C9.48 2.22 8.854 7.25 10.298 13.565 4.103 15.477.07 18.535.07 21.76c0 3.237 4.053 6.304 10.268 8.207-1.434 6.334-.797 11.373 2.012 12.987.647.378 1.404.557 2.24.557 2.74 0 6.325-1.952 9.95-5.338 3.625 3.366 7.21 5.299 9.95 5.299.836 0 1.593-.18 2.25-.558 2.799-1.614 3.426-6.643 1.982-12.957 6.175-1.903 10.208-4.97 10.208-8.197Zm-12.967-6.643a44.855 44.855 0 0 1-1.344 3.934 47.133 47.133 0 0 0-1.305-2.39 53.888 53.888 0 0 0-1.434-2.33 44.94 44.94 0 0 1 4.083.786Zm-4.561 10.607a53.058 53.058 0 0 1-2.4 3.804 51.82 51.82 0 0 1-8.984.01 54.9 54.9 0 0 1-2.41-3.784 51.877 51.877 0 0 1-2.071-3.964 51.935 51.935 0 0 1 2.061-3.974 53.058 53.058 0 0 1 2.4-3.804 51.82 51.82 0 0 1 8.984-.01 54.9 54.9 0 0 1 2.41 3.784 51.877 51.877 0 0 1 2.071 3.964 55.763 55.763 0 0 1-2.061 3.974Zm3.217-1.295c.538 1.335.996 2.67 1.374 3.964-1.305.319-2.679.588-4.103.797a55.02 55.02 0 0 0 1.434-2.36c.458-.797.886-1.604 1.295-2.4Zm-10.1 10.627a41.059 41.059 0 0 1-2.768-3.187c.897.04 1.813.07 2.739.07.936 0 1.862-.02 2.769-.07a38.874 38.874 0 0 1-2.74 3.187ZM17.11 29.19a44.94 44.94 0 0 1-4.083-.787c.368-1.285.826-2.61 1.344-3.934.409.797.837 1.594 1.305 2.39.468.797.946 1.574 1.434 2.33Zm7.36-20.726a41.059 41.059 0 0 1 2.769 3.187c-.897-.04-1.813-.07-2.739-.07-.936 0-1.862.02-2.769.07a38.874 38.874 0 0 1 2.74-3.187Zm-7.37 5.867a55.02 55.02 0 0 0-2.729 4.75 42.682 42.682 0 0 1-1.374-3.964 48.367 48.367 0 0 1 4.103-.786ZM8.087 26.8c-3.526-1.504-5.806-3.476-5.806-5.04 0-1.563 2.28-3.545 5.806-5.04a30.688 30.688 0 0 1 2.759-1.005 47.833 47.833 0 0 0 2.24 6.065 47.159 47.159 0 0 0-2.21 6.035 30.254 30.254 0 0 1-2.789-1.015Zm5.358 14.232c-1.354-.777-1.942-3.735-1.484-7.54.11-.936.289-1.922.508-2.928 1.952.478 4.083.847 6.324 1.086a48.582 48.582 0 0 0 4.143 4.98c-3.246 3.017-6.294 4.67-8.365 4.67-.449-.01-.827-.1-1.126-.268Zm23.624-7.59c.468 3.805-.11 6.763-1.454 7.55-.3.179-.688.259-1.146.259-2.061 0-5.119-1.644-8.366-4.641a47.04 47.04 0 0 0 4.114-4.97c2.25-.24 4.382-.608 6.334-1.096a27.88 27.88 0 0 1 .518 2.898Zm3.834-6.642c-.856.368-1.793.697-2.759 1.006a47.833 47.833 0 0 0-2.24-6.066 47.159 47.159 0 0 0 2.21-6.035c.986.309 1.923.647 2.799 1.016 3.526 1.504 5.806 3.476 5.806 5.04-.01 1.563-2.29 3.545-5.816 5.039Z"/><circle cx="24.49" cy="21.761" r="4.551"/></g></g></svg>